<?xml version="1.0" encoding="utf-8"?>
<!-- Generator: Adobe Illustrator 16.0.0, SVG Export Plug-In . SVG Version: 6.00 Build 0)  -->
<!DOCTYPE svg PUBLIC "-//W3C//DTD SVG 1.1//EN" "http://www.w3.org/Graphics/SVG/1.1/DTD/svg11.dtd">
<svg version="1.1" id="Layer_1" xmlns="http://www.w3.org/2000/svg" xmlns:xlink="http://www.w3.org/1999/xlink" x="0px" y="0px"
	 width="300px" height="63.053px" viewBox="0 0 300 63.053" enable-background="new 0 0 300 63.053" xml:space="preserve">
<g>
	<g>
		<g>
			<path d="M202.929,44.647v-1.154h4.266V13.952h-4.266v-1.154h14.024c1.389,0,2.786,0.208,4.188,0.622
				c1.402,0.415,2.576,0.977,3.516,1.689c2.84,2.161,4.258,4.855,4.258,8.083c0,2.547-0.9,4.584-2.7,6.108
				c-1.802,1.525-4.082,2.288-6.841,2.288h-7.56v11.905h4.264v1.154H202.929z M211.814,30.432h7.018c0.77,0,1.439-0.126,2.011-0.378
				c0.568-0.251,1.035-0.592,1.398-1.021c0.363-0.429,0.654-0.969,0.877-1.621c0.222-0.651,0.379-1.344,0.467-2.076
				c0.089-0.733,0.133-1.566,0.133-2.5c0-0.784-0.059-1.543-0.178-2.276c-0.118-0.732-0.319-1.487-0.599-2.265
				c-0.282-0.778-0.7-1.492-1.254-2.144c-0.557-0.651-1.228-1.176-2.012-1.577c-0.814-0.414-2.044-0.622-3.688-0.622h-4.174V30.432z
				"/>
		</g>
		<g>
			<path d="M233.713,28.833c0-2.014,0.281-3.913,0.844-5.697c0.563-1.784,1.332-3.335,2.311-4.653
				c0.977-1.318,2.109-2.458,3.397-3.42c1.289-0.963,2.681-1.684,4.176-2.166c1.496-0.481,3.014-0.721,4.554-0.721
				s3.057,0.24,4.553,0.721c1.495,0.481,2.887,1.203,4.175,2.166c1.289,0.962,2.421,2.102,3.399,3.42
				c0.977,1.318,1.746,2.869,2.308,4.653c0.564,1.784,0.845,3.683,0.845,5.697c0,2.502-0.432,4.805-1.298,6.908
				c-0.867,2.103-2.018,3.839-3.455,5.208c-1.436,1.369-3.06,2.432-4.874,3.188c-1.814,0.755-3.698,1.133-5.652,1.133
				s-3.839-0.378-5.653-1.133c-1.813-0.756-3.439-1.818-4.875-3.188c-1.437-1.369-2.588-3.105-3.453-5.208
				C234.145,33.638,233.713,31.335,233.713,28.833z M238.91,28.833c0,5.035,0.873,8.839,2.62,11.416
				c1.747,2.577,4.235,3.865,7.464,3.865c3.228,0,5.716-1.288,7.463-3.865c1.747-2.576,2.619-6.381,2.619-11.416
				c0-5.049-0.877-8.895-2.631-11.538c-1.755-2.643-4.238-3.964-7.451-3.964c-3.215,0-5.697,1.321-7.452,3.964
				C239.788,19.938,238.91,23.784,238.91,28.833z"/>
		</g>
		<g>
			<path d="M269.383,25.857l0.533-13.06h29.052l0.532,13.06h-1.154c-0.325-3.614-1.142-6.381-2.443-8.307
				c-1.614-2.398-3.718-3.598-6.309-3.598h-2.843v29.541h4.265v1.154h-13.147v-1.154h4.264V13.952h-2.843
				c-2.591,0-4.693,1.2-6.309,3.598c-1.303,1.926-2.117,4.693-2.442,8.307H269.383z"/>
		</g>
		<g>
			<path d="M243.589,32.462c-0.181,1.189-0.685,1.78-1.52,1.78c-0.921,0-1.591-0.498-2.008-1.492
				c-0.418-0.994-0.624-2.298-0.624-3.911c0-2.655,0.422-5.136,1.271-7.442c0.846-2.306,2.162-4.218,3.948-5.733
				c0.149-0.126,0.341-0.284,0.584-0.472c0.233-0.194,0.506-0.367,0.8-0.524c0.298-0.156,0.594-0.298,0.896-0.425
				c0.296-0.126,0.579-0.194,0.845-0.194c0.3,0,0.522,0.083,0.673,0.242c0.148,0.154,0.222,0.33,0.222,0.52
				c0,0.095-0.039,0.212-0.113,0.355c-0.074,0.142-0.259,0.215-0.56,0.215c-0.208,0-0.385-0.015-0.534-0.05
				c-0.147-0.032-0.297-0.048-0.444-0.048c-0.892,0-1.771,0.414-2.635,1.23c-0.863,0.819-1.627,1.882-2.297,3.19
				c-0.668,1.307-1.204,2.755-1.605,4.348c-0.403,1.59-0.604,3.158-0.604,4.701c0,0.379,0.01,0.836,0.022,1.372
				c0.017,0.536,0.074,1.047,0.179,1.536c0.104,0.491,0.282,0.909,0.536,1.255c0.251,0.352,0.619,0.523,1.095,0.523
				c0.328,0,0.566-0.118,0.714-0.354c0.15-0.241,0.225-0.5,0.225-0.783c0-0.538-0.213-0.805-0.628-0.805
				c-0.209,0-0.385,0.079-0.534,0.233c-0.062,0.13-0.092,0.208-0.092,0.239c-0.027-0.032-0.045-0.109-0.045-0.239
				c0-0.155,0.063-0.328,0.179-0.521c0.121-0.188,0.329-0.284,0.629-0.284c0.383,0,0.719,0.139,1.001,0.41
				c0.283,0.272,0.427,0.603,0.427,0.986V32.462z"/>
		</g>
		<g>
			<path d="M248.271,41.968c0.062-0.253,0.183-0.381,0.358-0.381c0.21,0,0.343,0.128,0.402,0.381c0,0.382-0.147,0.673-0.447,0.875
				c-0.297,0.208-0.607,0.311-0.934,0.311c-0.3,0-0.554-0.048-0.761-0.146c-1.787-0.631-3.301-1.887-4.552-3.771
				s-2.101-4.126-2.544-6.725c0.117,0.352,0.236,0.619,0.359,0.811c0.117,0.187,0.232,0.332,0.355,0.426
				c0.562,2.28,1.448,4.205,2.653,5.771c1.209,1.569,2.611,2.574,4.218,3.018h0.18c0.234,0,0.401-0.062,0.489-0.188
				C248.139,42.222,248.212,42.094,248.271,41.968z"/>
		</g>
		<g>
			<path d="M249.838,15.283c-0.093,0.256-0.226,0.382-0.405,0.382c-0.21,0-0.343-0.126-0.401-0.382c0-0.346,0.149-0.638,0.445-0.875
				c0.298-0.234,0.625-0.358,0.981-0.358c0.239,0,0.493,0.049,0.759,0.146c1.727,0.63,3.229,1.889,4.506,3.766
				c1.282,1.882,2.146,4.135,2.592,6.753c-0.12-0.346-0.245-0.622-0.379-0.828c-0.137-0.205-0.246-0.357-0.337-0.451
				c-0.564-2.274-1.457-4.187-2.678-5.736c-1.221-1.546-2.634-2.543-4.237-2.985h-0.179c-0.241,0-0.403,0.057-0.491,0.166
				C249.926,14.992,249.866,15.125,249.838,15.283z"/>
		</g>
		<g>
			<path d="M258.492,25.664c0.06,0.475,0.105,0.949,0.133,1.423c0.031,0.473,0.045,0.964,0.045,1.468
				c0.032,1.897-0.201,3.707-0.692,5.43c-0.49,1.717-1.181,3.292-2.073,4.714c-0.238,0.377-0.551,0.821-0.938,1.327
				c-0.386,0.504-0.816,0.996-1.293,1.47c-0.476,0.473-0.995,0.866-1.565,1.184c-0.564,0.315-1.146,0.475-1.735,0.475
				c-0.241,0-0.452-0.062-0.649-0.189c-0.193-0.126-0.29-0.316-0.29-0.571c0-0.091,0.037-0.21,0.115-0.354
				c0.072-0.141,0.244-0.212,0.509-0.212c0.24,0,0.443,0.016,0.604,0.047c0.165,0.035,0.334,0.049,0.511,0.049
				c0.925,0,1.816-0.427,2.678-1.281c0.86-0.854,1.623-1.937,2.277-3.246c0.652-1.312,1.174-2.757,1.562-4.339
				c0.387-1.579,0.58-3.107,0.58-4.595c0-0.38-0.011-0.839-0.023-1.374c-0.017-0.54-0.077-1.05-0.182-1.541
				c-0.109-0.488-0.288-0.917-0.528-1.28c-0.249-0.362-0.6-0.543-1.054-0.543c-0.355,0-0.61,0.141-0.76,0.425
				c-0.145,0.283-0.224,0.567-0.224,0.853c0,0.191,0.033,0.357,0.092,0.499c0.06,0.142,0.132,0.212,0.224,0.212
				c0.207,0,0.363-0.032,0.468-0.097c0.104-0.063,0.189-0.125,0.248-0.187c0.057-0.125,0.104-0.205,0.132-0.236l0.09,0.284
				c0,0.159-0.076,0.323-0.222,0.5c-0.151,0.174-0.359,0.257-0.626,0.257c-0.924,0-1.381-0.438-1.381-1.326
				c0-0.631,0.156-1.097,0.472-1.399c0.316-0.299,0.686-0.448,1.106-0.448c0.48,0,0.954,0.197,1.419,0.59
				c0.467,0.396,0.789,1.004,0.972,1.826V25.664z"/>
		</g>
		<g>
			<path d="M282.712,48.405c-0.441,0-0.658,0.235-0.658,0.707c0,0.186,0.045,0.358,0.142,0.516c0.089,0.157,0.249,0.233,0.47,0.233
				l0.376-0.092c0,0.347-0.189,0.518-0.567,0.518c-0.375,0-0.602-0.149-0.681-0.447c-0.076-0.301-0.121-0.618-0.121-0.966
				l-0.044-28.766c0.192-0.094,0.36-0.313,0.52-0.657c0.093-0.506,0-1.273,0-1.273c-0.159-0.341-0.395-0.609-0.706-0.796
				c-0.315-0.191-0.628-0.284-0.941-0.284c-0.281,0-0.532,0.088-0.751,0.258c-0.219,0.172-0.33,0.432-0.33,0.776
				c0.159-0.158,0.347-0.235,0.565-0.235c0.248,0,0.47,0.086,0.659,0.256c0.185,0.175,0.278,0.384,0.278,0.637
				c0,0.25-0.078,0.438-0.233,0.562c-0.154,0.127-0.327,0.187-0.517,0.187c-0.406,0-0.824-0.187-1.246-0.562
				c-0.424-0.375-0.635-0.831-0.635-1.361c0-0.627,0.244-1.104,0.729-1.435c0.486-0.329,0.98-0.494,1.48-0.494
				c0.254,0.033,0.511,0.068,0.779,0.117c0.261,0.048,0.546,0.135,0.856,0.257c0.01-0.005,0.017-0.009,0.027-0.014l-0.016-0.642
				c-0.032,0-0.159-0.022-0.378-0.07c-0.218-0.048-0.504-0.068-0.848-0.068c-0.343,0-0.689,0.036-1.035,0.117
				c-0.341,0.076-0.656,0.221-0.938,0.421c-0.283,0.205-0.517,0.47-0.703,0.8c-0.188,0.331-0.282,0.73-0.282,1.198
				c0,0.785,0.282,1.42,0.847,1.905c0.56,0.485,1.157,0.73,1.785,0.73c0.093,0,0.295-0.034,0.611-0.097v28.392
				c0,0.812,0.156,1.39,0.465,1.717c0.316,0.329,0.646,0.493,0.993,0.493c0.341,0,0.658-0.12,0.939-0.353
				c0.28-0.234,0.424-0.558,0.424-0.964c0-0.343-0.144-0.635-0.424-0.87C283.323,48.523,283.023,48.405,282.712,48.405z"/>
		</g>
		<g>
			<path d="M207.196,29.466c-0.436-0.338-0.684-0.805-0.748-1.396c-0.007-0.043-0.021-0.085-0.022-0.127
				c-0.008-0.099-0.012-0.437-0.002-0.52c0.021-0.243,0.073-0.485,0.147-0.728c0.078-0.277,0.194-0.551,0.33-0.823
				c0.135-0.277,0.282-0.55,0.443-0.812c0.735-1.197,2.994-2.258,4.414-2.78v-0.04c0.072-0.03,0.211-0.078,0.431-0.14
				c0.061-0.015,0.118-0.015,0.18-0.028c0.074-0.021,0.162-0.052,0.223-0.068v0.034c0.499-0.085,0.987-0.118,1.451-0.054
				c0.594,0.077,1.078,0.248,1.458,0.516c0.377,0.269,0.609,0.609,0.696,1.035c0.091,0.422-0.08,0.868-0.51,1.339
				c-0.177,0.219-0.396,0.398-0.646,0.539c-0.253,0.141-0.503,0.237-0.751,0.281c-0.255,0.047-0.481,0.042-0.674-0.023
				c-0.199-0.061-0.351-0.204-0.457-0.421c-0.109-0.188-0.116-0.375-0.029-0.564c0.089-0.187,0.234-0.338,0.431-0.448
				c0.199-0.11,0.41-0.165,0.645-0.165c0.236,0,0.44,0.082,0.618,0.235c0-0.375-0.115-0.641-0.348-0.799
				c-0.232-0.159-0.521-0.233-0.859-0.233c-0.344,0-0.683,0.075-1.027,0.233c-0.338,0.158-0.6,0.392-0.782,0.708
				c-0.033,0.028-0.048,0.062-0.048,0.091v-0.02c-0.225,0.362-0.356,0.842-0.128,1.453c0.254,0.676,0.743,1.038,1.201,1.254
				c0.325,0.138,0.655,0.263,1.024,0.3c0.463,0.047,0.951,0.013,1.453-0.097c0.506-0.109,0.933-0.316,1.293-0.632
				c0.679-0.597,1.096-1.262,1.237-1.997c0.146-0.738,0.009-1.394-0.402-1.976c-0.415-0.581-1.085-0.992-2.02-1.245
				c-0.932-0.25-2.138-0.188-3.617,0.189l-0.005-0.628h-4.451v2.977c-0.504,0.44-0.942,0.901-1.318,1.386
				c-0.381,0.488-0.673,1.168-0.891,2.047c-0.216,0.875-0.131,1.737,0.243,2.583c0.354,0.792,0.973,1.332,1.817,1.656V29.466z"/>
		</g>
		<g>
			<g>
				<path d="M212.306,31.559v0.132c0.011,0,0.025-0.003,0.033-0.003v12.411v0.706c-0.041-0.025-0.038-0.044-0.073-0.068v1.092
					c0.011,0.003,0.02,0.007,0.03,0.009v2.635c0,0.248-0.02,0.467-0.051,0.657c-0.033,0.188-0.115,0.359-0.25,0.52
					c-0.195,0.186-0.451,0.254-0.767,0.206c-0.315-0.042-0.441-0.206-0.373-0.488c0.331,0.152,0.578,0.145,0.742-0.024
					c0.166-0.174,0.27-0.388,0.298-0.637c0-0.313-0.096-0.525-0.298-0.636c-0.196-0.109-0.411-0.14-0.642-0.093
					c-0.234,0.051-0.468,0.156-0.695,0.329c-0.232,0.172-0.365,0.387-0.397,0.633c-0.102,0.441-0.009,0.807,0.272,1.108
					c0.279,0.296,0.618,0.454,1.02,0.468c0.395,0.018,0.769-0.141,1.115-0.468c0.347-0.33,0.521-0.901,0.521-1.716V31.594
					c0.068-0.006,0.139-0.028,0.207-0.036H212.306z"/>
			</g>
		</g>
	</g>
	<g>
		<path d="M0.676,44.69v-1.158h4.276V13.903H0.676v-1.16h13.19v1.16H9.587v29.629h4.279v1.158H0.676z"/>
	</g>
	<g>
		<path d="M18.681,25.843l0.533-13.1h29.144l0.534,13.1h-1.157c-0.327-3.623-1.145-6.401-2.452-8.333
			c-1.618-2.405-3.728-3.607-6.329-3.607h-2.851v29.629h4.278v1.158H27.193v-1.158h4.275V13.903h-2.851
			c-2.601,0-4.711,1.202-6.33,3.607c-1.305,1.932-2.122,4.71-2.45,8.333H18.681z"/>
	</g>
	<g>
		<path d="M49.47,44.69v-1.158h4.854l10.302-31.414h1.33L77.61,43.532h4.052v1.158H66.713v-1.158h5.57l-3.801-10.248h-9.294
			l-3.362,10.248h4.677v1.158H49.47z M59.568,32.125h8.488l-4.501-12.148L59.568,32.125z"/>
	</g>
	<g>
		<path d="M85.117,44.69v-1.158h4.279V13.903h-4.279v-1.16h13.19v1.16h-4.277v29.629h6.639c1.514,0,2.82-0.229,3.92-0.69
			c1.1-0.46,2.049-1.253,2.852-2.384c0.849-1.201,1.46-2.402,1.838-3.609c0.38-1.2,0.656-2.601,0.834-4.188h1.427l-0.525,12.029
			H85.117z"/>
	</g>
	<g>
		<path d="M115.775,44.69v-1.158h4.276V13.903h-4.276v-1.16h13.19v1.16h-4.281v29.629h4.281v1.158H115.775z"/>
	</g>
	<g>
		<path d="M132.037,44.69v-1.158h4.858l10.301-31.414h1.329l11.651,31.414h4.055v1.158h-14.95v-1.158h5.571l-3.799-10.248h-9.296
			l-3.361,10.248h4.676v1.158H132.037z M142.139,32.125h8.486l-4.504-12.148L142.139,32.125z"/>
	</g>
	<g>
		<path d="M167.242,44.69v-1.158h4.542V13.903h-4.542v-1.16h11.068l13.616,22.392V13.903h-4.545v-1.16h10.517v1.16h-4.545v31.411
			h-1.339l-18.29-30.076c-0.252-0.417-0.379-0.861-0.379-1.335h-0.135v29.629h4.545v1.158H167.242z"/>
	</g>
	<g>
		<path d="M51.11,59.847h-3.271l-0.727,1.706h-0.82l2.833-6.523h0.697l2.833,6.523h-0.819L51.11,59.847z M50.821,59.167
			l-1.035-2.422c-0.139-0.337-0.298-0.793-0.306-0.793h-0.01c-0.009,0-0.168,0.456-0.307,0.793l-1.035,2.422H50.821z"/>
		<path d="M61.234,55.03v3.821c0,1.845-0.979,2.842-2.683,2.842c-1.705,0-2.674-0.997-2.674-2.842V55.03h0.764v3.831
			c0,1.416,0.653,2.114,1.911,2.114c1.267,0,1.918-0.698,1.918-2.114V55.03H61.234z"/>
		<path d="M70.046,55.03v0.718h-2.191v5.806h-0.754v-5.806h-2.18V55.03H70.046z"/>
		<path d="M78.995,55.03v6.523H78.24v-3.019h-3.568v3.019h-0.765V55.03h0.765v2.787h3.568V55.03H78.995z"/>
		<path d="M87.936,60.835v0.718h-4.408V55.03h4.352v0.718h-3.587v2.013h2.878v0.681h-2.878v2.395H87.936z"/>
		<path d="M97.528,55.03v6.523h-0.717l-2.897-3.905c-0.561-0.772-0.969-1.369-0.979-1.369h-0.011c-0.008,0,0.021,0.811,0.021,1.855
			v3.419H92.18V55.03h0.717l2.897,3.895c0.497,0.662,0.97,1.344,0.979,1.344h0.01c0.009,0-0.019-0.878-0.019-1.809v-3.43H97.528z"/>
		<path d="M106.517,55.03v0.718h-2.189v5.806h-0.754v-5.806h-2.18V55.03H106.517z"/>
		<path d="M110.379,61.553V55.03h0.764v6.523H110.379z"/>
		<path d="M120.729,56.81c-0.448-0.718-1.276-1.164-2.19-1.164c-1.491,0-2.6,1.071-2.6,2.646c0,1.575,1.138,2.637,2.6,2.637
			c0.997,0,1.873-0.533,2.302-1.352l0.754,0.205c-0.54,1.155-1.695,1.901-3.056,1.901c-1.873,0-3.382-1.426-3.382-3.392
			s1.509-3.391,3.382-3.391c1.276,0,2.377,0.67,2.962,1.715L120.729,56.81z"/>
		<path d="M135.741,61.553V55.03h0.764v6.523H135.741z"/>
		<path d="M145.493,55.03v0.718h-2.19v5.806h-0.754v-5.806h-2.18V55.03H145.493z"/>
		<path d="M152.654,59.847h-3.27l-0.728,1.706h-0.819l2.833-6.523h0.697l2.834,6.523h-0.819L152.654,59.847z M152.366,59.167
			l-1.034-2.422c-0.14-0.337-0.299-0.793-0.308-0.793h-0.01c-0.01,0-0.168,0.456-0.307,0.793l-1.035,2.422H152.366z"/>
		<path d="M162.184,60.835v0.718h-4.258V55.03h0.763v5.806H162.184z"/>
		<path d="M166.027,61.553V55.03h0.764v6.523H166.027z"/>
		<path d="M175.333,59.847h-3.271l-0.727,1.706h-0.818l2.832-6.523h0.698l2.833,6.523h-0.82L175.333,59.847z M175.044,59.167
			l-1.034-2.422c-0.141-0.337-0.298-0.793-0.307-0.793h-0.011c-0.01,0-0.168,0.456-0.307,0.793l-1.034,2.422H175.044z"/>
		<path d="M185.95,55.03v6.523h-0.716l-2.898-3.905c-0.559-0.772-0.97-1.369-0.978-1.369h-0.01c-0.009,0,0.018,0.811,0.018,1.855
			v3.419h-0.764V55.03h0.718l2.897,3.895c0.494,0.662,0.97,1.344,0.979,1.344h0.01c0.009,0-0.019-0.878-0.019-1.809v-3.43H185.95z"
			/>
		<path d="M204.513,61.553l-1.472-2.442c-0.104,0.01-0.226,0.01-0.337,0.01h-1.221v2.433h-0.765V55.03h1.985
			c1.529,0,2.44,0.803,2.44,2.06c0,0.933-0.492,1.593-1.359,1.871l1.586,2.593H204.513z M202.779,58.441
			c1.042,0,1.583-0.569,1.583-1.352c0-0.828-0.586-1.342-1.583-1.342h-1.296v2.693H202.779z"/>
		<path d="M213.854,60.835v0.718h-4.408V55.03h4.353v0.718h-3.589v2.013h2.88v0.681h-2.88v2.395H213.854z"/>
		<path d="M222.869,56.81c-0.446-0.718-1.275-1.164-2.188-1.164c-1.491,0-2.6,1.071-2.6,2.646c0,1.575,1.136,2.637,2.6,2.637
			c0.997,0,1.872-0.533,2.301-1.352l0.756,0.205c-0.542,1.155-1.697,1.901-3.057,1.901c-1.873,0-3.382-1.426-3.382-3.392
			s1.509-3.391,3.382-3.391c1.276,0,2.376,0.67,2.962,1.715L222.869,56.81z"/>
		<path d="M227.543,61.553V55.03h0.764v6.523H227.543z"/>
		<path d="M234.836,55.03c1.51,0,2.423,0.782,2.423,2.078c0,1.297-0.913,2.087-2.423,2.087h-1.239v2.358h-0.764V55.03H234.836z
			 M234.817,58.479c1.071,0,1.659-0.523,1.659-1.371c0-0.875-0.634-1.36-1.659-1.36h-1.221v2.731H234.817z"/>
		<path d="M245.558,60.835v0.718h-4.408V55.03h4.352v0.718h-3.588v2.013h2.88v0.681h-2.88v2.395H245.558z"/>
		<path d="M253.054,56.838c-0.14-0.793-0.819-1.268-1.629-1.268c-0.858,0-1.463,0.41-1.463,1.063c0,0.718,0.902,0.939,1.77,1.2
			c0.912,0.271,2.152,0.682,2.152,1.947c0,1.1-0.951,1.901-2.387,1.901c-1.397,0-2.281-0.82-2.487-1.919l0.736-0.195
			c0.094,0.755,0.719,1.425,1.78,1.425c0.97,0,1.555-0.514,1.555-1.193c0-0.949-1.126-1.146-2.049-1.435
			c-0.745-0.231-1.844-0.568-1.844-1.695c0-1.017,0.959-1.77,2.262-1.77c1.185,0,2.118,0.698,2.33,1.742L253.054,56.838z"/>
	</g>
	<rect x="0.5" y="58.361" width="36.772" height="0.737"/>
	<rect x="264.273" y="58.361" width="35.051" height="0.737"/>
	<rect x="0.676" y="1.36" width="298.237" height="0.738"/>
	<rect x="0.676" y="4.838" width="298.237" height="0.737"/>
</g>
</svg>
